<svg id="Capa_1" enable-background="new 0 0 510 510" height="512" viewBox="0 0 510 510" width="512" xmlns="http://www.w3.org/2000/svg" xmlns:xlink="http://www.w3.org/1999/xlink"><linearGradient id="SVGID_1_" gradientUnits="userSpaceOnUse" x1="0" x2="510" y1="255" y2="255"><stop offset="0" stop-color="#fff9df"/><stop offset=".593" stop-color="#ffe177"/><stop offset="1" stop-color="#feb137"/></linearGradient><linearGradient id="lg1"><stop offset="0" stop-color="#ffe177"/><stop offset="1" stop-color="#feb137"/></linearGradient><linearGradient id="SVGID_2_" gradientUnits="userSpaceOnUse" x1="140.543" x2="394.474" xlink:href="#lg1" y1="29.335" y2="29.335"/><linearGradient id="SVGID_3_" gradientUnits="userSpaceOnUse" x1="140.543" x2="394.474" xlink:href="#lg1" y1="480.665" y2="480.665"/><linearGradient id="SVGID_4_" gradientUnits="userSpaceOnUse" x1="194" x2="510.228" xlink:href="#lg1" y1="255" y2="255"/><linearGradient id="SVGID_5_" gradientUnits="userSpaceOnUse" x1="122.485" x2="386.793" xlink:href="#lg1" y1="255" y2="255"/><linearGradient id="SVGID_6_" gradientUnits="userSpaceOnUse" x1="160.406" x2="346.187" y1="232.839" y2="232.839"><stop offset="0" stop-color="#a2e62e"/><stop offset=".7542" stop-color="#09a76d"/><stop offset="1" stop-color="#017b4e"/></linearGradient><linearGradient id="SVGID_7_" gradientUnits="userSpaceOnUse" x1="124.014" x2="325.66" y1="273.77" y2="273.77"><stop offset="0" stop-color="#a2e62e"/><stop offset="1" stop-color="#02905d"/></linearGradient><linearGradient id="SVGID_8_" gradientUnits="userSpaceOnUse" x1="234.025" x2="306.876" y1="238.526" y2="238.526"><stop offset="0" stop-color="#09a76d"/><stop offset="1" stop-color="#026841"/></linearGradient><g><g><path d="m492.295 314.117c6.396 0 11.916-4.527 13.122-10.808 3.003-15.642 4.583-31.791 4.583-48.309s-1.58-32.667-4.583-48.309c-1.206-6.281-6.726-10.808-13.122-10.808h-31.275c-5.689 0-10.727-3.612-12.615-8.978-2.469-7.015-5.307-13.856-8.494-20.499-2.463-5.133-1.459-11.254 2.567-15.279l22.101-22.101c4.525-4.525 5.221-11.632 1.631-16.93-9.106-13.438-19.455-25.965-30.894-37.404l-.008-.008c-11.439-11.439-23.966-21.788-37.404-30.894-5.297-3.589-12.405-2.893-16.93 1.631l-22.101 22.101c-4.026 4.026-10.146 5.03-15.279 2.567-6.642-3.187-13.483-6.025-20.499-8.494-5.366-1.888-8.978-6.926-8.978-12.615v-31.275c0-6.396-4.527-11.916-10.808-13.122-15.642-3.003-31.791-4.583-48.309-4.583s-32.667 1.58-48.309 4.583c-6.281 1.206-10.808 6.726-10.808 13.122v31.275c0 5.689-3.612 10.727-8.978 12.615-7.015 2.469-13.856 5.307-20.499 8.494-5.133 2.463-11.254 1.459-15.279-2.567l-22.101-22.101c-4.525-4.525-11.632-5.221-16.93-1.631-13.439 9.106-25.967 19.456-37.407 30.896l-.003.002c-11.44 11.44-21.79 23.968-30.896 37.407-3.589 5.297-2.893 12.405 1.631 16.93l22.101 22.101c4.026 4.026 5.03 10.146 2.567 15.279-3.187 6.642-6.025 13.483-8.494 20.499-1.888 5.366-6.926 8.978-12.615 8.978h-31.275c-6.396 0-11.916 4.527-13.122 10.808-3.003 15.643-4.583 31.792-4.583 48.31s1.58 32.667 4.583 48.309c1.206 6.281 6.726 10.808 13.122 10.808h31.275c5.689 0 10.727 3.612 12.615 8.978 2.469 7.015 5.307 13.856 8.494 20.499 2.463 5.133 1.459 11.254-2.567 15.279l-22.101 22.101c-4.525 4.525-5.221 11.632-1.631 16.93 9.106 13.439 19.456 25.967 30.896 37.407l.003.002c11.44 11.44 23.967 21.79 37.407 30.896 5.297 3.589 12.405 2.893 16.93-1.631l22.101-22.101c4.026-4.026 10.146-5.03 15.279-2.567 6.642 3.187 13.483 6.025 20.499 8.494 5.366 1.888 8.978 6.926 8.978 12.615v31.275c0 6.396 4.527 11.916 10.808 13.122 15.642 3.004 31.791 4.584 48.309 4.584s32.667-1.58 48.309-4.583c6.281-1.206 10.808-6.726 10.808-13.122v-31.275c0-5.689 3.612-10.727 8.978-12.615 7.015-2.469 13.856-5.307 20.499-8.494 5.133-2.463 11.254-1.459 15.279 2.567l22.101 22.101c4.525 4.525 11.632 5.221 16.93 1.631 13.438-9.106 25.965-19.455 37.404-30.894l.008-.008c11.439-11.439 21.788-23.966 30.894-37.404 3.589-5.297 2.893-12.405-1.631-16.93l-22.101-22.101c-4.026-4.026-5.03-10.146-2.567-15.279 3.187-6.642 6.025-13.483 8.494-20.499 1.888-5.366 6.926-8.978 12.615-8.978z" fill="url(#SVGID_1_)"/><g><path d="m274.1 46.76v-29.05c0-6.384-4.506-11.913-10.775-13.119-9.278-1.786-18.736-3.049-28.335-3.801 6.6-.51 13.27-.79 20.01-.79 16.52 0 32.67 1.58 48.31 4.58 6.28 1.21 10.81 6.73 10.81 13.13v31.27c0 3.76 1.57 7.22 4.18 9.69h-32.29c-6.578 0-11.91-5.332-11.91-11.91z" fill="url(#SVGID_2_)"/><path d="m318.29 451.33c-2.61 2.45-4.17 5.94-4.17 9.69v31.27c0 6.4-4.53 11.92-10.81 13.13-15.64 3-31.79 4.58-48.31 4.58-6.74 0-13.41-.28-20.01-.79 9.599-.751 19.057-2.015 28.335-3.801 6.269-1.207 10.775-6.735 10.775-13.119v-29.05c0-6.578 5.332-11.91 11.91-11.91z" fill="url(#SVGID_3_)"/><path d="m505.417 206.691c-1.206-6.281-6.726-10.808-13.122-10.808h-31.275c-5.689 0-10.727-3.612-12.615-8.978-2.469-7.015-5.307-13.856-8.494-20.499-2.463-5.133-1.459-11.254 2.567-15.28l22.101-22.101c4.525-4.525 5.221-11.632 1.631-16.93-9.106-13.438-19.455-25.965-30.894-37.404l-.008-.008c-11.439-11.439-23.966-21.788-37.404-30.894-5.297-3.589-12.405-2.893-16.93 1.631l-8.798 8.798c8.113 6.356 15.834 13.187 23.112 20.465l.008.008c11.439 11.439 21.788 23.966 30.894 37.404 3.589 5.297 2.893 12.405-1.631 16.93l-22.101 22.101c-4.026 4.026-5.03 10.146-2.567 15.28 3.187 6.642 6.025 13.483 8.494 20.499 1.888 5.366 6.926 8.978 12.615 8.978h31.275c6.396 0 11.916 4.527 13.122 10.808 3.003 15.642 4.583 31.79 4.583 48.309s-1.58 32.667-4.583 48.309c-1.206 6.281-6.726 10.808-13.122 10.808h-31.275c-5.689 0-10.727 3.612-12.615 8.978-2.469 7.015-5.307 13.856-8.494 20.499-2.463 5.133-1.459 11.254 2.567 15.28l22.101 22.101c4.525 4.525 5.221 11.632 1.631 16.93-9.106 13.438-19.455 25.965-30.894 37.404l-.008.008c-7.278 7.277-14.999 14.109-23.112 20.465l8.798 8.798c4.525 4.525 11.632 5.221 16.93 1.631 13.438-9.106 25.965-19.455 37.404-30.894l.008-.008c11.439-11.439 21.788-23.966 30.894-37.404 3.589-5.297 2.893-12.405-1.631-16.93l-22.101-22.101c-4.026-4.026-5.03-10.146-2.567-15.28 3.187-6.642 6.025-13.483 8.494-20.499 1.888-5.366 6.926-8.978 12.615-8.978h31.275c6.396 0 11.916-4.527 13.122-10.808 3.003-15.642 4.583-31.79 4.583-48.309s-1.58-32.667-4.583-48.309z" fill="url(#SVGID_4_)"/></g></g><circle cx="255" cy="255" fill="url(#SVGID_5_)" r="133.908"/><g><path d="m347.13 235.88c0 54.77-23.9 105.59-64.7 147.51-.012.013-.025.025-.037.038-2.228 2.277-5.197 3.69-8.351 4.139-6.22.885-12.576 1.343-19.042 1.343-6.465 0-12.821-.458-19.042-1.343-3.154-.449-6.123-1.862-8.351-4.139-.012-.013-.025-.025-.037-.038-40.8-41.92-64.7-92.74-64.7-147.51 0-34.61 9.54-67.64 26.87-97.84 10.08-17.6 22.81-34.24 37.83-49.67 15.05-15.47 39.81-15.47 54.86 0 15.02 15.43 27.75 32.07 37.83 49.67 17.33 30.2 26.87 63.23 26.87 97.84z" fill="url(#SVGID_6_)"/><path d="m347.13 235.88c0 54.77-23.9 105.58-64.7 147.51-.012.013-.024.025-.037.037-2.22 2.269-5.177 3.687-8.32 4.132-2.038.289-4.092.531-6.163.72-4.25.42-8.55.63-12.91.63-4.31 0-8.58-.2-12.78-.61-2.112-.197-4.208-.444-6.288-.739-3.145-.446-6.104-1.863-8.325-4.134-.012-.012-.024-.025-.037-.037-21.85-22.45-38.84-47.45-49.93-74.24 4.62.46 9.31.7 14.05.7 77.03 0 139.47-62.44 139.47-139.46 0-3.96-.18-7.88-.5-11.76 10.7 24.411 16.47 50.351 16.47 77.251z" fill="url(#SVGID_7_)"/><path d="m326.11 276.34-42.34 42.34c-10.16 10.16-15.86 23.94-15.86 38.3v31.3c-4.25.42-8.55.63-12.91.63-4.31 0-8.58-.2-12.78-.61v-31.19c0-14.36-5.7-28.14-15.86-38.3l-42.16-42.16c-4.84-4.83-5.41-12.7-.9-17.84 4.95-5.63 13.53-5.84 18.75-.63l40.17 40.17v-17.28c0-21.8-8.66-42.7-24.07-58.11l-34.26-34.27c-5.22-5.21-5.01-13.8.62-18.74 5.14-4.52 13.01-3.94 17.85.89l39.86 39.86v-109.72c0-7.37 6.22-13.3 13.7-12.81 6.82.44 11.99 6.41 11.99 13.25v109.16l40.04-40.05c5.21-5.21 13.8-5.01 18.74.63 4.52 5.13 3.95 13.01-.89 17.84l-33.83 33.83c-15.41 15.41-24.06 36.31-24.06 58.11v17.29l39.73-39.74c4.84-4.83 12.71-5.41 17.85-.89 5.63 4.94 5.84 13.53.62 18.74z" fill="url(#SVGID_8_)"/></g></g></svg>