<svg id="Capa_1" enable-background="new 0 0 510 510" height="512" viewBox="0 0 510 510" width="512" xmlns="http://www.w3.org/2000/svg" xmlns:xlink="http://www.w3.org/1999/xlink"><linearGradient id="SVGID_1_" gradientUnits="userSpaceOnUse" x1="128.003" x2="382.124" y1="133.025" y2="133.025"><stop offset="0" stop-color="#a2e62e"/><stop offset=".7542" stop-color="#09a76d"/><stop offset="1" stop-color="#017b4e"/></linearGradient><linearGradient id="SVGID_2_" gradientUnits="userSpaceOnUse" x1="73" x2="338.481" y1="133.027" y2="133.027"><stop offset="0" stop-color="#a2e62e"/><stop offset="1" stop-color="#02905d"/></linearGradient><linearGradient id="SVGID_3_" gradientUnits="userSpaceOnUse" x1="216.566" x2="328.378" y1="73.045" y2="73.045"><stop offset="0" stop-color="#09a76d"/><stop offset="1" stop-color="#026841"/></linearGradient><linearGradient id="lg1"><stop offset="0" stop-color="#ffd15b"/><stop offset="1" stop-color="#eca026"/></linearGradient><linearGradient id="SVGID_4_" gradientUnits="userSpaceOnUse" x1="34" x2="542.133" xlink:href="#lg1" y1="359.766" y2="359.766"/><linearGradient id="SVGID_5_" gradientUnits="userSpaceOnUse" x1="225.565" x2="378.624" xlink:href="#lg1" y1="359.766" y2="359.766"/><linearGradient id="SVGID_6_" gradientUnits="userSpaceOnUse" x1="34" x2="512.053" y1="378.986" y2="378.986"><stop offset="0" stop-color="#fff9df"/><stop offset=".593" stop-color="#ffe177"/><stop offset="1" stop-color="#feb137"/></linearGradient><linearGradient id="SVGID_7_" gradientUnits="userSpaceOnUse" x1="285.562" x2="459.612" y1="401.29" y2="401.29"><stop offset="0" stop-color="#ffe177"/><stop offset="1" stop-color="#feb137"/></linearGradient><linearGradient id="lg2"><stop offset="0" stop-color="#fe99a0"/><stop offset=".593" stop-color="#fe646f"/><stop offset="1" stop-color="#e41f2d"/></linearGradient><linearGradient id="SVGID_8_" gradientTransform="matrix(1 0 0 -1 0 584.009)" gradientUnits="userSpaceOnUse" x1="45" x2="425.012" xlink:href="#lg2" y1="323.17" y2="323.17"/><linearGradient id="lg3"><stop offset="0" stop-color="#fe646f"/><stop offset=".7043" stop-color="#e41f2d"/><stop offset="1" stop-color="#c41926"/></linearGradient><linearGradient id="SVGID_9_" gradientUnits="userSpaceOnUse" x1="245.153" x2="318.428" xlink:href="#lg3" y1="312.769" y2="312.769"/><linearGradient id="SVGID_10_" gradientUnits="userSpaceOnUse" x1="239.592" x2="361.015" xlink:href="#lg3" y1="216.872" y2="216.872"/><linearGradient id="SVGID_11_" gradientUnits="userSpaceOnUse" x1="45" x2="425.012" xlink:href="#lg2" y1="428.511" y2="428.511"/><linearGradient id="SVGID_12_" gradientUnits="userSpaceOnUse" x1="318.561" x2="502.294" xlink:href="#lg3" y1="450.815" y2="450.815"/><g><path d="m374.48 131.479v110.514h-238.96v-110.514l73.19-86.03c24.26-28.523 68.32-28.523 92.58 0z" fill="url(#SVGID_1_)"/><path d="m374.48 131.479v110.514h-40.02v-76.203c0-13.953-4.965-27.45-14.007-38.078l-38.363-45.091c-14.2-16.696-39.98-16.696-54.18 0l-67.11 78.881c-4.96 5.819-12.21 9.178-19.85 9.178h-5.43v-39.201l73.19-86.03c7.32-8.608 16.44-14.617 26.28-18.026 22.77-7.898 49.36-1.89 66.3 18.026z" fill="url(#SVGID_2_)"/><path d="m227.907 58.029c14.202-16.695 39.983-16.695 54.186 0l67.112 78.888c4.951 5.82 12.207 9.173 19.849 9.173h15.904c8.835 0 13.618-10.345 7.894-17.073l-91.557-107.622c-24.268-28.527-68.321-28.527-92.589 0l-91.556 107.622c-5.724 6.729-.941 17.073 7.894 17.073h15.904c7.642 0 14.898-3.354 19.849-9.173z" fill="url(#SVGID_3_)"/><path d="m475.504 209.531c-37.672 0-403.337 0-441.008 0-19.052 0-34.496 15.441-34.496 34.488v231.494c0 19.046 15.444 34.487 34.496 34.487h441.009c19.051 0 34.495-15.441 34.495-34.487v-231.494c0-19.047-15.444-34.488-34.496-34.488z" fill="url(#SVGID_4_)"/><path d="m475.504 209.531c-5.97 0-20.186 0-40.02 0 19.051 0 34.496 15.441 34.496 34.488v231.494c0 19.047-15.444 34.487-34.496 34.487h40.02c19.052 0 34.496-15.441 34.496-34.487v-231.494c0-19.047-15.444-34.488-34.496-34.488z" fill="url(#SVGID_5_)"/><path d="m475.504 292.659c-37.672 0-74.734-8.634-108.954-24.384-27.017-12.434-66.969-20.304-111.55-20.304s-84.533 7.87-111.55 20.304c-34.22 15.75-71.282 24.384-108.954 24.384-19.052 0-34.496 15.441-34.496 34.488v148.366c0 19.046 15.444 34.487 34.496 34.487h441.009c19.051 0 34.495-15.441 34.495-34.487v-148.366c0-19.047-15.444-34.488-34.496-34.488z" fill="url(#SVGID_6_)"/><path d="m475.504 292.659c-1.844 0-3.684-.038-5.524-.079v182.932c0 19.047-15.444 34.487-34.496 34.487h40.02c19.052.001 34.496-15.44 34.496-34.486v-148.366c0-19.047-15.444-34.488-34.496-34.488z" fill="url(#SVGID_7_)"/><g><path d="m324.21 268.799h-32.133v87.939h-74.153v-87.939h-32.134c-12.585 0-19.398-14.735-11.245-24.32l59.383-69.803c11.046-12.984 31.097-12.984 42.143 0l59.383 69.803c8.154 9.585 1.341 24.32-11.244 24.32z" fill="url(#SVGID_8_)"/><g><path d="m292.076 268.799v87.939h-24.73v-77.493c0-5.769 4.678-10.446 10.449-10.446z" fill="url(#SVGID_9_)"/><path d="m324.21 268.799h-24.73c12.585 0 19.398-14.735 11.245-24.32l-59.383-69.803c-2.507-2.947-5.482-5.218-8.706-6.828 10.981-5.48 24.898-3.209 33.436 6.828l59.383 69.803c8.153 9.585 1.34 24.32-11.245 24.32z" fill="url(#SVGID_10_)"/></g></g><path d="m475.504 391.71c-37.672 0-74.734-8.634-108.954-24.384-27.017-12.434-66.969-20.304-111.55-20.304s-84.533 7.87-111.55 20.304c-34.22 15.75-71.282 24.384-108.954 24.384-19.052 0-34.496 15.44-34.496 34.487v49.315c0 19.047 15.444 34.488 34.496 34.488h441.009c19.051 0 34.495-15.441 34.495-34.487v-49.315c0-19.048-15.444-34.488-34.496-34.488z" fill="url(#SVGID_11_)"/><path d="m475.504 391.71c-1.844 0-3.684-.038-5.524-.079v83.882c0 19.047-15.444 34.487-34.496 34.487h40.02c19.052 0 34.496-15.441 34.496-34.487v-49.315c0-19.048-15.444-34.488-34.496-34.488z" fill="url(#SVGID_12_)"/></g></svg>