<svg height="512" viewBox="0 0 60 60" width="512" xmlns="http://www.w3.org/2000/svg"><g id="Page-1" fill="none" fill-rule="evenodd"><g id="017---Wind-Farm" fill-rule="nonzero"><g id="Icons" transform="translate(1 1)"><path id="Shape" d="m58 52v1h-58v-1c0-2.209139 1.790861-4 4-4h50c2.209139 0 4 1.790861 4 4z" fill="#a4c400"/><path id="Shape" d="m54 48h-3c2.209139 0 4 1.790861 4 4v1h3v-1c0-2.209139-1.790861-4-4-4z" fill="#90ac00"/><path id="Shape" d="m58 53c0 2.7614237-2.2385763 5-5 5h-48c-1.32608245 0-2.59785201-.5267842-3.53553391-1.4644661-.93768189-.9376819-1.46446609-2.2094515-1.46446609-3.5355339z" fill="#a0522d"/><path id="Shape" d="m55 53c0 2.7614237-2.2385763 5-5 5h3c2.7614237 0 5-2.2385763 5-5z" fill="#783e22"/><path id="Shape" d="m34.08 5.07c.0011347.2848184-.0222853.56920449-.07.85l-1.57 9.45c-1.9288245-1.8285954-4.9511755-1.8285954-6.88 0l-1.57-9.45c-.316736-1.88829344.4551466-3.79427484 1.9965683-4.9300533 1.5414218-1.13577848 3.5905119-1.30839757 5.3002216-.44650033 1.7097096.86189723 2.7895775 2.61188379 2.7932101 4.52655363z" fill="#02a9f4"/><path id="Shape" d="m29 0c-.5199334.00120701-1.0366063.08214794-1.532.24 2.1354195.64012387 3.6016082 2.600725 3.612 4.83.0011347.2848184-.0222853.56920449-.07.85l-1.353 8.144c1.0419906.1316098 2.0158895.5886389 2.783 1.306l1.57-9.45c.0477147-.28079551.0711347-.5651816.07-.85-.004965-2.80192931-2.2780663-5.07055607-5.08-5.07z" fill="#0377bc"/><path id="Shape" d="m27.05 23.61-.63.52-7.11 5.85c-1.1505977.9507343-2.6618398 1.3458151-4.130521 1.0798335-1.4686813-.2659817-2.745384-1.1659659-3.489479-2.4598335h-.01c-.7464963-1.2940258-.8859452-2.8509233-.381294-4.2570124s1.6023006-2.5189869 3.001294-3.0429876l9.9-3.71c-.7097034 2.438702.5138815 5.0232568 2.85 6.02z" fill="#02a9f4"/><path id="Shape" d="m46.32 28.6h-.01c-.744095 1.2938676-2.0207977 2.1938518-3.489479 2.4598335-1.4686812.2659816-2.9799233-.1290992-4.130521-1.0798335l-7.11-5.85-.63-.52c2.3361185-.9967432 3.5597034-3.581298 2.85-6.02l9.9 3.71c1.3989934.5240007 2.4966428 1.6368985 3.001294 3.0429876s.3652023 2.9629866-.381294 4.2570124z" fill="#02a9f4"/><path id="Shape" d="m43.7 21.3-9.9-3.71c.1085719.3889635.1706715.789422.185 1.193l6.715 2.517c1.3989934.5240007 2.4966428 1.6368985 3.001294 3.0429876s.3652023 2.9629866-.381294 4.2570124h-.01c-.6364008 1.1080786-1.6696458 1.9333164-2.891 2.309 2.2619592.7012287 4.7079834-.2574999 5.891-2.309h.01c.7464963-1.2940258.8859452-2.8509233.381294-4.2570124s-1.6023006-2.5189869-3.001294-3.0429876z" fill="#0377bc"/><path id="Shape" d="m34 19c-.0005435 2.0091572-1.2010799 3.8237384-3.05 4.61-1.248.52-2.652.52-3.9 0-2.3162136-.9727941-3.5538408-3.5105857-2.8941989-5.9346415s3.0125688-3.9847742 5.5023343-3.6497498c2.4897656.3350244 4.3464485 2.4621905 4.3418646 4.9743913z" fill="#02a9f4"/><path id="Shape" d="m33.8 17.59c-.3655543-1.2962511-1.2457103-2.3864088-2.4357931-3.0169638-1.1900829-.630555-2.5863857-.7465591-3.8642069-.3210362 1.9979129.6250152 3.3931496 2.4308392 3.4936988 4.5218174.1005493 2.0909782-1.1149762 4.0223465-3.0436988 4.8361826-.143.06-.3.091-.45.138.4842493.1598977.9900844.244878 1.5.252.6693876.0001586 1.3321648-.1323968 1.95-.39 2.3361185-.9967432 3.5597034-3.581298 2.85-6.02z" fill="#0377bc"/><path id="Shape" d="m36 48h-14l4.42-23.87.63-.52c1.248.52 2.652.52 3.9 0l.63.52z" fill="#3f51b5"/><path id="Shape" d="m31.58 24.13-.63-.52c-.6178352.2576032-1.2806124.3901586-1.95.39-.2202337-.0072205-.4397307-.0292705-.657-.066l.237.2 4.42 23.866h3z" fill="#283593"/></g><g id="Icons_copy" fill="#000"><path id="Shape" d="m55 48h-17.168l-3.769-20.357 4.991 4.108c1.3583385 1.1220776 3.1373624 1.5982562 4.8746003 1.3047494 1.7372378-.2935068 3.261083-1.3277061 4.1753997-2.8337494.03017-.038906.0578902-.0796514.083-.122.8936426-1.548746 1.0606205-3.4122315.4565543-5.0951799s-1.9179889-3.0148894-3.5925543-3.6418201l-9.469-3.548c-.2539215-.6452933-.6176236-1.2417646-1.075-1.763l1.488-8.963c.0579962-.33653783.086438-.67750446.085-1.019-.0114354-2.28646401-1.3046984-4.37318952-3.347227-5.40086902-2.0425287-1.0276795-4.4889273-.82253034-6.3317761.53096765s-2.7705183 3.6264656-2.4009969 5.88290137l1.489 8.969c-.4573764.5212354-.8210785 1.1177067-1.075 1.763l-9.469 3.548c-1.6738613.6277692-2.9868384 1.9600607-3.5900987 3.6429103-.6032602 1.6828496-.4357236 3.545869.4580987 5.0940897.0244191.0418357.0521759.0816316.083.119.9125146 1.5077003 2.4359792 2.5436561 4.1735615 2.8380217 1.7375822.2943655 3.5172512-.1820033 4.8754385-1.3050217l4.992-4.108-3.769 20.356h-17.168c-2.76005315.0033061-4.99669388 2.2399468-5 5v1c.00330738 3.3123376 2.68766243 5.9966926 6 6h48c3.3123376-.0033074 5.9966926-2.6876624 6-6v-1c-.0033061-2.7600532-2.2399468-4.9966939-5-5zm-29-28c0-2.209139 1.790861-4 4-4s4 1.790861 4 4-1.790861 4-4 4-4-1.790861-4-4zm20.76 5.68c.3934054 1.0915541.3032101 2.2990075-.248 3.32-.0251996.0317608-.0482508.0651684-.069.1-.5966683 1.0394034-1.6216025 1.7625355-2.8009001 1.976147-1.1792975.2136115-2.3927589-.1040698-3.3160999-.868147l-6.652-5.475c1.4352971-1.1110038 2.2889859-2.8132321 2.321-4.628l8.355 3.131c1.1239078.4202248 2.0055606 1.3143158 2.41 2.444zm-19.875-22.235c1.1046408-1.3058826 2.9065588-1.78413103 4.5133865-1.19790132s2.6774313 2.11247943 2.6816135 3.82290132c.0010245.22989069-.0180481.45943096-.057.686l-1.311 7.9c-1.7025382-.8733269-3.7214618-.8733269-5.424 0l-1.311-7.9c-.2012638-1.18360741.1311198-2.39563625.908-3.311zm-7.212 26.764c-.9234329.7636233-2.1367381 1.0809216-3.3157806.8671286-1.1790425-.2137931-2.2036944-.9368949-2.8002194-1.9761286-.0206098-.0346865-.0433188-.068082-.068-.1-.5597225-1.0383813-.6432412-2.26803-.2290667-3.3725591.4141744-1.1045291 1.2856025-1.9760936 2.3900667-2.3904409l8.355-3.131c.0320141 1.8147679.8857029 3.5169962 2.321 4.628zm8.648-4.453c1.0957045.3252599 2.2622955.3252599 3.358 0l4.121 22.244h-11.6zm-23.321 24.244h50c1.6568542 0 3 1.3431458 3 3h-56c0-1.6568542 1.34314575-3 3-3zm49 8h-48c-1.81841162-.0068148-3.40340667-1.2393149-3.858-3h55.716c-.4545933 1.7606851-2.0395884 2.9931852-3.858 3z"/><path id="Shape" d="m19.992 4.455c-1.6785142-1.12290373-3.8684858-1.12290373-5.547 0l-1.562 1.045c-1.006997.67386977-2.321003.67386977-3.328 0l-1.563-1.045c-1.67851423-1.12290373-3.86848577-1.12290373-5.547 0-.45950091.30651804-.58351804.92749909-.277 1.387s.92749909.58351804 1.387.277c1.00699699-.67386977 2.32100301-.67386977 3.328 0l1.562 1.041c1.6781847 1.12398829 3.8688153 1.12398829 5.547 0l1.563-1.041c1.006997-.67386977 2.321003-.67386977 3.328 0 .297208.205674.6822701.23496532 1.0071691.07661443.324899-.1583509.5390655-.47969728.5601743-.84051411s-.1541256-.70494428-.4583434-.90010032z"/><path id="Shape" d="m14.445 10.455-1.562 1.045c-1.006997.6738698-2.321003.6738698-3.328 0l-1.563-1.045c-1.67851423-1.12290373-3.86848577-1.12290373-5.547 0-.45950091.306518-.58351804.9274991-.277 1.387s.92749909.583518 1.387.277c1.00699699-.6738698 2.32100301-.6738698 3.328 0l1.562 1.041c1.6781847 1.1239883 3.8688153 1.1239883 5.547 0l1.563-1.041c1.006997-.6738698 2.321003-.6738698 3.328 0 .297208.205674.6822701.2349653 1.0071691.0766144s.5390655-.4796973.5601743-.8405141-.1541256-.7049443-.4583434-.9001003c-1.6785142-1.12290373-3.8684858-1.12290373-5.547 0z"/><path id="Shape" d="m57.555 4.455c-1.6785142-1.12290373-3.8684858-1.12290373-5.547 0l-1.563 1.045c-1.006997.67386977-2.321003.67386977-3.328 0l-1.562-1.045c-1.6785142-1.12290373-3.8684858-1.12290373-5.547 0-.3042178.19515604-.4794522.53928349-.4583434.90010032s.2352753.68216321.5601743.84051411c.324899.15835089.7099611.12905957 1.0071691-.07661443 1.006997-.67386977 2.321003-.67386977 3.328 0l1.563 1.041c1.6781847 1.12398829 3.8688153 1.12398829 5.547 0l1.562-1.041c1.006997-.67386977 2.321003-.67386977 3.328 0 .297245.1982824.6776931.22292459.9980331.0646441.3203401-.1582805.5319049-.4754371.555-.832s-.1457881-.6983617-.4430331-.8966441z"/><path id="Shape" d="m52.008 10.455-1.563 1.045c-1.006997.6738698-2.321003.6738698-3.328 0l-1.562-1.041c-1.6785142-1.12290373-3.8684858-1.12290373-5.547 0-.3042178.195156-.4794522.5392835-.4583434.9001003s.2352753.6821632.5601743.8405141.7099611.1290596 1.0071691-.0766144c1.006997-.6738698 2.321003-.6738698 3.328 0l1.563 1.041c1.6781847 1.1239883 3.8688153 1.1239883 5.547 0l1.562-1.041c1.006997-.6738698 2.321003-.6738698 3.328 0 .297245.1982824.6776931.2229246.9980331.0646441.3203401-.1582805.5319049-.4754371.555-.832s-.1457881-.6983617-.4430331-.8966441c-1.6777044-1.12411447-3.8676761-1.12569368-5.547-.004z"/></g></g></g></svg>